<?xml version="1.0" encoding="utf-8"?>
<!-- Generator: Adobe Illustrator 24.0.2, SVG Export Plug-In . SVG Version: 6.00 Build 0)  -->
<svg version="1.1" xmlns="http://www.w3.org/2000/svg" xmlns:xlink="http://www.w3.org/1999/xlink" x="0px" y="0px"
	 viewBox="0 0 24 24" style="enable-background:new 0 0 24 24;" xml:space="preserve">
<style type="text/css">
	.st0{fill:none;}
	.st1{fill:#000000;}
</style>
<g id="bounding_box">
	<rect x="0" y="0" class="st0" width="24" height="24"/>
</g>
<g id="design">
	<g>
		<path class="st1" d="M20.83,14.21L18.9,13.1c0.07-0.36,0.1-0.72,0.1-1.1s-0.03-0.74-0.1-1.1l1.93-1.11
			c0.59-0.35,0.8-1.11,0.46-1.71l-1.25-2.16c-0.17-0.29-0.44-0.5-0.76-0.59c-0.33-0.08-0.67-0.04-0.95,0.13l-1.92,1.11
			c-0.57-0.47-1.21-0.84-1.91-1.1V3.25C14.5,2.56,13.94,2,13.25,2h-2.5C10.06,2,9.5,2.56,9.5,3.25v2.22C8.8,5.73,8.16,6.1,7.59,6.57
			L5.67,5.46C5.38,5.29,5.05,5.25,4.72,5.33C4.4,5.42,4.13,5.63,3.96,5.92L2.71,8.08c-0.34,0.6-0.13,1.37,0.46,1.71L5.1,10.9
			C5.03,11.26,5,11.62,5,12s0.03,0.74,0.1,1.1l-1.93,1.11c-0.59,0.34-0.8,1.11-0.46,1.71l1.25,2.16c0.17,0.29,0.44,0.5,0.76,0.59
			c0.11,0.02,0.22,0.04,0.33,0.04c0.22,0,0.43-0.06,0.62-0.17l1.92-1.11c0.57,0.47,1.21,0.84,1.91,1.1v2.22
			c0,0.69,0.56,1.25,1.25,1.25h2.5c0.69,0,1.25-0.56,1.25-1.25v-2.22c0.7-0.26,1.34-0.63,1.91-1.1l1.92,1.11
			c0.19,0.11,0.4,0.17,0.62,0.17c0.11,0,0.22-0.02,0.33-0.04c0.32-0.09,0.59-0.3,0.76-0.59l1.25-2.16
			C21.63,15.32,21.42,14.56,20.83,14.21z M8.5,12c0-1.93,1.57-3.5,3.5-3.5s3.5,1.57,3.5,3.5s-1.57,3.5-3.5,3.5S8.5,13.93,8.5,12z"/>
	</g>
</g>
</svg>
